<?xml version="1.0" encoding="UTF-8" standalone="no"?>
<!DOCTYPE svg PUBLIC "-//W3C//DTD SVG 1.1//EN" "http://www.w3.org/Graphics/SVG/1.1/DTD/svg11.dtd">
<svg width="100%" height="100%" viewBox="0 0 24 24" version="1.1" xmlns="http://www.w3.org/2000/svg" xmlns:xlink="http://www.w3.org/1999/xlink" xml:space="preserve" xmlns:serif="http://www.serif.com/" style="fill-rule:evenodd;clip-rule:evenodd;stroke-linejoin:round;stroke-miterlimit:2;">
    <g transform="matrix(1.11347,0,0,1.11347,-1.40256,-1.2165)">
        <path d="M12,2.928L9.026,5.65L11.23,7.763L12.72,7.905L13.208,9.232L15.527,10.799L16.602,10.68L17.2,12.32L15.994,13.317L14.502,12.964L14.66,11.806L12.385,10.243L12.574,15.455L13.552,16.297L12.741,17.891L11.171,17.931L10.35,16.37L11.053,15.45L11.196,10.39L10.24,9.978L10.437,8.76L8.264,6.587L3.019,11.863L12.046,20.859L20.981,11.893L12,2.928Z"/>
    </g>
</svg>
