<?xml version="1.0" encoding="UTF-8" standalone="no"?>
<!DOCTYPE svg PUBLIC "-//W3C//DTD SVG 1.1//EN" "http://www.w3.org/Graphics/SVG/1.1/DTD/svg11.dtd">
<svg width="100%" height="100%" viewBox="0 0 24 24" version="1.1" xmlns="http://www.w3.org/2000/svg" xmlns:xlink="http://www.w3.org/1999/xlink" xml:space="preserve" xmlns:serif="http://www.serif.com/" style="fill-rule:evenodd;clip-rule:evenodd;stroke-linejoin:round;stroke-miterlimit:2;">
    <path d="M19.242,7.067L5.086,7.373L6.126,20.942L18.346,20.922L19.242,7.067ZM14.79,9.299L16.408,9.265L15.761,19.216L14.408,19.148L14.79,9.299ZM7.732,9.503L9.361,9.503L9.611,19.087L8.383,19.087L7.732,9.503ZM11.329,9.401L12.729,9.435L12.672,19.047L11.386,19.081L11.329,9.401ZM13.488,3.079L10.574,2.996L10.47,4.395L3.773,4.313L3.704,6.368L20.289,6.039L20.254,4.313L13.488,4.231L13.488,3.079Z"/>
</svg>
