<?xml version="1.0" encoding="UTF-8" standalone="no"?>
<!DOCTYPE svg PUBLIC "-//W3C//DTD SVG 1.1//EN" "http://www.w3.org/Graphics/SVG/1.1/DTD/svg11.dtd">
<svg width="100%" height="100%" viewBox="0 0 24 24" version="1.1" xmlns="http://www.w3.org/2000/svg" xmlns:xlink="http://www.w3.org/1999/xlink" xml:space="preserve" xmlns:serif="http://www.serif.com/" style="fill-rule:evenodd;clip-rule:evenodd;stroke-linejoin:round;stroke-miterlimit:2;">
    <g transform="matrix(0.748805,0.748805,-0.748805,0.748805,11.1593,-5.98096)">
        <path d="M10.5,10.012L13.5,9.982L13.5,8.489L14.497,8.44L14.99,8.764L15.312,9.622L18.71,9.647L18.679,4.587L15.464,4.41L15.163,5.141L14.471,5.487L13.5,5.532L13.5,4.283L10.5,4.374L8.109,4.873L5.945,6.31L4.461,9.1L6.532,8.504L10.5,8.458L10.5,10.012Z"/>
    </g>
    <g transform="matrix(0.748805,0.748805,-0.748805,0.748805,11.1593,-5.98096)">
        <path d="M10.559,11.033L13.437,11.103L13.576,20.925L10.342,20.96L10.559,11.033Z"/>
    </g>
</svg>
